<?xml version="1.0" encoding="utf-8"?>
<!-- Generator: Adobe Illustrator 26.5.0, SVG Export Plug-In . SVG Version: 6.00 Build 0)  -->
<svg version="1.1" id="レイヤー_1" xmlns="http://www.w3.org/2000/svg" xmlns:xlink="http://www.w3.org/1999/xlink" x="0px"
	 y="0px" viewBox="0 0 266.4 62.8" style="enable-background:new 0 0 266.4 62.8;" xml:space="preserve">
<style type="text/css">
	.st0{fill:none;stroke:#0C244A;stroke-width:1.0693;stroke-miterlimit:10;}
</style>
<g>
	<g>
		<path class="st0" d="M50.8,22.08c1.75-2.44,2.24-7.45-1.37-8.58c-3.54-1.11-7.94,1.53-10.08,4.15
			c-3.67,4.52-3.44,11.75-1.12,17.26C43.03,31.24,47.35,26.89,50.8,22.08z"/>
	</g>
	<g>
		<path class="st0" d="M99.99,22.08c1.75-2.44,2.24-7.45-1.37-8.58c-3.54-1.11-7.94,1.53-10.08,4.15
			c-3.67,4.52-3.44,11.75-1.12,17.26C92.22,31.24,96.54,26.89,99.99,22.08z"/>
	</g>
	<g>
		<path class="st0" d="M149.17,22.08c1.75-2.44,2.24-7.45-1.37-8.58c-3.54-1.11-7.94,1.53-10.08,4.15
			c-3.67,4.52-3.44,11.75-1.12,17.26C141.4,31.24,145.72,26.89,149.17,22.08z"/>
	</g>
	<g>
		<path class="st0" d="M198.36,22.08c1.75-2.44,2.24-7.45-1.37-8.58c-3.54-1.11-7.94,1.53-10.08,4.15
			c-3.67,4.52-3.44,11.75-1.12,17.26C190.59,31.24,194.91,26.89,198.36,22.08z"/>
	</g>
	<g>
		<path class="st0" d="M255,46.45c-6.9,0-14.06-2.31-18.17-8.17c-0.71-1.01-1.32-2.15-1.84-3.37c-9.07,6.95-19.85,11.39-29.78,11.53
			c-6.71-0.13-13.58-2.47-17.57-8.15c-0.71-1.01-1.32-2.15-1.84-3.37c-9.07,6.95-19.85,11.39-29.78,11.53
			c-6.71-0.13-13.58-2.47-17.57-8.15c-0.71-1.01-1.32-2.15-1.84-3.37c-9.07,6.95-19.85,11.39-29.78,11.53
			c-6.71-0.13-13.58-2.47-17.57-8.15c-0.71-1.01-1.32-2.15-1.84-3.37c-9.07,6.95-19.85,11.39-29.78,11.53
			c-6.71-0.13-13.58-2.47-17.57-8.15c-0.71-1.01-1.32-2.15-1.84-3.37C29.03,41.97,18.05,46.45,8,46.45"/>
	</g>
	<g>
		<line class="st0" x1="204.74" y1="46.45" x2="205.81" y2="46.45"/>
	</g>
	<g>
		<line class="st0" x1="155.56" y1="46.45" x2="156.63" y2="46.45"/>
	</g>
	<g>
		<line class="st0" x1="106.37" y1="46.45" x2="107.44" y2="46.45"/>
	</g>
	<g>
		<line class="st0" x1="57.19" y1="46.45" x2="58.26" y2="46.45"/>
	</g>
	<g>
		<path class="st0" d="M247.55,22.08c1.75-2.44,2.24-7.45-1.37-8.58c-3.54-1.11-7.94,1.53-10.08,4.15
			c-3.67,4.52-3.44,11.75-1.12,17.26C239.77,31.24,244.1,26.89,247.55,22.08z"/>
	</g>
</g>
</svg>
