<?xml version="1.0" encoding="utf-8"?>
<!-- Generator: Adobe Illustrator 27.5.0, SVG Export Plug-In . SVG Version: 6.00 Build 0)  -->
<svg version="1.1" id="レイヤー_1" xmlns="http://www.w3.org/2000/svg" xmlns:xlink="http://www.w3.org/1999/xlink" x="0px"
	 y="0px" viewBox="0 0 400 90" style="enable-background:new 0 0 400 90;" xml:space="preserve">
<style type="text/css">
	.st0{display:none;opacity:0.47;enable-background:new    ;}
	.st1{font-family:'Corporate-Logo-Bold-ver2';}
	.st2{font-size:38.7851px;}
	.st3{fill:none;stroke:#040000;stroke-width:18;stroke-linecap:round;stroke-miterlimit:10;}
	.st4{fill:none;stroke:#000000;stroke-width:18;stroke-miterlimit:10;}
	.st5{fill:none;stroke:#000000;stroke-width:18;stroke-linecap:round;stroke-linejoin:round;stroke-miterlimit:10;}
	.st6{fill:none;stroke:#000000;stroke-width:13.8054;stroke-linecap:round;stroke-linejoin:round;stroke-miterlimit:10;}
	.st7{fill:none;stroke:#000000;stroke-width:13;stroke-linecap:round;stroke-linejoin:round;stroke-miterlimit:10;}
	.st8{fill:none;stroke:#F9938C;stroke-width:18;stroke-linecap:round;stroke-miterlimit:10;}
	.st9{fill:#B1DD45;}
	.st10{fill:none;stroke:#F9938C;stroke-width:18;stroke-linecap:round;stroke-linejoin:round;stroke-miterlimit:10;}
	.st11{fill:none;stroke:#6ACBE5;stroke-width:18.1;stroke-miterlimit:10;}
	.st12{fill:none;stroke:#6ACBE5;stroke-width:18;stroke-linecap:round;stroke-linejoin:round;stroke-miterlimit:10;}
	.st13{fill:none;stroke:#B1DD45;stroke-width:18;stroke-linecap:round;stroke-linejoin:round;stroke-miterlimit:10;}
	.st14{fill:none;stroke:#B1DD45;stroke-width:13.8054;stroke-linecap:round;stroke-linejoin:round;stroke-miterlimit:10;}
	.st15{fill:none;stroke:#B1DD45;stroke-width:13;stroke-linecap:round;stroke-linejoin:round;stroke-miterlimit:10;}
	.st16{fill:none;stroke:#6ACBE5;stroke-width:13;stroke-linecap:round;stroke-linejoin:round;stroke-miterlimit:10;}
	.st17{fill:none;stroke:#F9938C;stroke-width:5.1965;stroke-linecap:round;stroke-miterlimit:10;}
	.st18{fill:none;stroke:#F9938C;stroke-width:5.1965;stroke-linecap:round;stroke-linejoin:round;stroke-miterlimit:10;}
	.st19{fill:none;stroke:#6ACBE5;stroke-width:5.2254;stroke-miterlimit:10;}
	.st20{fill:none;stroke:#6ACBE5;stroke-width:5.1965;stroke-linecap:round;stroke-linejoin:round;stroke-miterlimit:10;}
	.st21{fill:none;stroke:#B1DD45;stroke-width:5.1965;stroke-linecap:round;stroke-linejoin:round;stroke-miterlimit:10;}
	.st22{fill:none;stroke:#000000;stroke-width:5.1965;stroke-linecap:round;stroke-linejoin:round;stroke-miterlimit:10;}
	.st23{fill:none;stroke:#6ACBE5;stroke-width:3.753;stroke-linecap:round;stroke-linejoin:round;stroke-miterlimit:10;}
	.st24{fill:#9DD0E1;}
	.st25{fill:none;stroke:#000000;stroke-width:2;stroke-linecap:round;stroke-miterlimit:10;}
	.st26{fill:#F9938C;}
</style>
<image style="overflow:visible;enable-background:new    ;" width="4000" height="2250" xlink:href="E65E6F118ECCE0C5.jpg"  transform="matrix(0.292 0 0 0.292 -971 888)">
</image>
<text transform="matrix(1 0 0 1 326.1484 -594.7852)" class="st1" style="opacity:0.47;enable-background:new    ; font-size:129.0671px;">すくすくこどもクリニック</text>
<text transform="matrix(1 0 0 1 317.692 -784.0166)" class="st1" style="opacity:0.47;enable-background:new    ; font-size:129.0671px;">すくすくこどもクリニック</text>
<text transform="matrix(1 0 0 1 56.668 62.9551)" class="st0 st1 st2">すくすくこどもクリニック</text>
<line class="st3" x1="339.3" y1="-668.6" x2="410.1" y2="-668.6"/>
<circle cx="383.4" cy="-690.9" r="10.4"/>
<circle class="st4" cx="372" cy="-626" r="20.5"/>
<path class="st5" d="M388.3-668.2c0,0,13.2,38.7-3.8,82.7"/>
<line class="st5" x1="498" y1="-683" x2="447" y2="-639"/>
<line class="st5" x1="448" y1="-638" x2="499" y2="-594"/>
<line class="st3" x1="534.3" y1="-667.6" x2="605.1" y2="-667.6"/>
<circle cx="578.4" cy="-689.9" r="10.4"/>
<circle class="st4" cx="567" cy="-625" r="20.5"/>
<path class="st5" d="M583.3-667.2c0,0,13.2,38.7-3.8,82.7"/>
<line class="st5" x1="693" y1="-682" x2="642" y2="-638"/>
<line class="st5" x1="643" y1="-637" x2="694" y2="-593"/>
<path class="st5" d="M734-677c0,0,27-9,55,0"/>
<path class="st5" d="M738-620c-3,8-3,11-1,15c6,12.1,36,12.8,57,6"/>
<line class="st5" x1="788" y1="-676" x2="775" y2="-666"/>
<line class="st5" x1="835" y1="-685" x2="847" y2="-649"/>
<path class="st5" d="M889-661c0,0-60,23-59,48s33,19,61,17"/>
<line class="st6" x1="878" y1="-701" x2="878" y2="-691"/>
<line class="st6" x1="894" y1="-700" x2="894" y2="-690"/>
<line class="st5" x1="919" y1="-665" x2="969" y2="-665"/>
<line class="st5" x1="919" y1="-636" x2="969" y2="-636"/>
<path class="st5" d="M944-688c0,0-9.6,51.2-2,79c3.1,11.5,12.3,18,22,18c33,0,28-28,26-42"/>
<path class="st5" d="M1042-682c0,0-9,29-18,37"/>
<line class="st5" x1="1040" y1="-668" x2="1085" y2="-668"/>
<path class="st5" d="M1085-666c0,14.7-6.2,36.6-19,52c-10.7,12.9-27.1,20.5-38,21"/>
<path class="st5" d="M1411-684c0,0-9,29-18,37"/>
<line class="st5" x1="1409" y1="-670" x2="1454" y2="-670"/>
<path class="st5" d="M1454-668c0,14.7-6.2,36.6-19,52c-10.7,12.9-27.1,20.5-38,21"/>
<line class="st5" x1="1124" y1="-685" x2="1124" y2="-648"/>
<path class="st5" d="M1174-685c0,0,4,43-3,63c-5.3,15.3-26.3,27.2-33,29"/>
<line class="st5" x1="1217" y1="-674" x2="1267" y2="-674"/>
<path class="st5" d="M1208-599"/>
<line class="st7" x1="1307" y1="-662" x2="1310.8" y2="-636.9"/>
<line class="st7" x1="1328.2" y1="-660.3" x2="1331.9" y2="-635.2"/>
<line class="st5" x1="1208" y1="-599" x2="1279" y2="-599"/>
<path class="st7" d="M1361-662c-1.5,27.5-9,43-18.5,52.5s-22,12-29,13"/>
<line class="st8" x1="333.3" y1="-858.6" x2="404.1" y2="-858.6"/>
<circle class="st9" cx="380.4" cy="-881.9" r="10.4"/>
<circle class="st9" cx="865.2" cy="-880.2" r="8.2"/>
<circle class="st9" cx="884.8" cy="-880.2" r="8.2"/>
<circle class="st9" cx="1300.2" cy="-840.2" r="10.2"/>
<circle class="st9" cx="1324.8" cy="-840.2" r="10.2"/>
<path class="st10" d="M382.3-858.2c0,0,13.2,38.7-3.8,82.7"/>
<circle class="st11" cx="366.5" cy="-815.5" r="20.5"/>
<line class="st8" x1="536.3" y1="-860.6" x2="607.1" y2="-860.6"/>
<circle class="st9" cx="583.4" cy="-883.9" r="10.4"/>
<path class="st10" d="M585.3-860.2c0,0,13.2,38.7-3.8,82.7"/>
<circle class="st11" cx="569.5" cy="-817.5" r="20.5"/>
<line class="st10" x1="492" y1="-873" x2="441" y2="-829"/>
<line class="st12" x1="441" y1="-829" x2="492" y2="-785"/>
<line class="st10" x1="687" y1="-872" x2="636" y2="-828"/>
<line class="st12" x1="636" y1="-828" x2="687" y2="-784"/>
<line class="st13" x1="782" y1="-866" x2="769" y2="-856"/>
<path class="st10" d="M728-867c0,0,27-9,55,0"/>
<path class="st12" d="M732-810c-3,8-3,11-1,15c6,12.1,36,12.8,57,6"/>
<line class="st10" x1="829" y1="-875" x2="841" y2="-839"/>
<path class="st12" d="M883-851c0,0-60,23-59,48s33,19,61,17"/>
<line class="st14" x1="1632" y1="-797" x2="1632" y2="-787"/>
<line class="st14" x1="1648" y1="-797" x2="1648" y2="-787"/>
<line class="st10" x1="913" y1="-855" x2="963" y2="-855"/>
<line class="st10" x1="913" y1="-826" x2="963" y2="-826"/>
<path class="st12" d="M938-878c0,0-9.6,51.2-2,79c3.1,11.5,12.3,18,22,18c33,0,28-28,26-42"/>
<line class="st12" x1="1034" y1="-858" x2="1079" y2="-858"/>
<path class="st10" d="M1036-872c0,0-9,29-18,37"/>
<path class="st13" d="M1079-858c0,14.7-6.2,36.6-19,52c-10.7,12.9-27.1,20.5-38,21"/>
<line class="st12" x1="1402" y1="-863" x2="1447" y2="-863"/>
<path class="st10" d="M1404-877c0,0-9,29-18,37"/>
<path class="st13" d="M1447-863c0,14.7-6.2,36.6-19,52c-10.7,12.9-27.1,20.5-38,21"/>
<path class="st5" d="M1557-785c0,0-9,29-18,37"/>
<line class="st5" x1="1555" y1="-771" x2="1600" y2="-771"/>
<path class="st5" d="M1600-769c0,14.7-6.2,36.6-19,52c-10.7,12.9-27.1,20.5-38,21"/>
<line class="st12" x1="1118" y1="-875" x2="1118" y2="-838"/>
<path class="st13" d="M1168-875c0,0,4,43-3,63c-5.3,15.3-26.3,27.2-33,29"/>
<line class="st10" x1="1211.8" y1="-864" x2="1261.8" y2="-864"/>
<path class="st5" d="M1202-789"/>
<line class="st15" x1="1679" y1="-803" x2="1682.8" y2="-777.9"/>
<line class="st15" x1="1700.2" y1="-803" x2="1703.9" y2="-777.9"/>
<line class="st13" x1="1201.2" y1="-789" x2="1272.2" y2="-789"/>
<path class="st16" d="M1354.5-844.5c-1.5,27.5-8.5,35.5-18,45s-22,12-29,13"/>
<g>
	<line class="st17" x1="79.2" y1="35.6" x2="99.7" y2="35.6"/>
	<circle class="st9" cx="92.8" cy="28.9" r="3"/>
	<path class="st18" d="M93.4,35.8c0,0,3.8,11.2-1.1,23.9"/>
	<circle class="st19" cx="88.8" cy="48.1" r="5.9"/>
</g>
<g>
	<line class="st18" x1="122.8" y1="31.5" x2="108.1" y2="44.2"/>
	<line class="st20" x1="108.1" y1="44.2" x2="122.8" y2="56.8"/>
</g>
<g>
	<line class="st17" x1="132.9" y1="35.6" x2="153.3" y2="35.6"/>
	<circle class="st9" cx="146.5" cy="28.9" r="3"/>
	<path class="st18" d="M147.1,35.8c0,0,3.8,11.2-1.1,23.9"/>
	<circle class="st19" cx="142.5" cy="48.1" r="5.9"/>
</g>
<g>
	<line class="st18" x1="176.5" y1="31.5" x2="161.8" y2="44.2"/>
	<line class="st20" x1="161.8" y1="44.2" x2="176.5" y2="56.8"/>
</g>
<g>
	<line class="st21" x1="203.4" y1="34.3" x2="199.7" y2="37.2"/>
	<path class="st18" d="M187.9,34c0,0,7.8-2.6,15.9,0"/>
	<path class="st20" d="M189,50.5c-0.9,2.3-0.9,3.2-0.3,4.3c1.7,3.5,10.4,3.7,16.5,1.7"/>
</g>
<g>
	<circle class="st9" cx="227" cy="29.8" r="2.4"/>
	<circle class="st9" cx="232.7" cy="29.8" r="2.4"/>
	<line class="st18" x1="216.6" y1="31.3" x2="220" y2="41.7"/>
	<path class="st20" d="M232.1,38.3c0,0-17.3,6.6-17,13.9s9.5,5.5,17.6,4.9"/>
</g>
<g>
	<line class="st18" x1="240" y1="37.2" x2="254.5" y2="37.2"/>
	<line class="st18" x1="240" y1="45.6" x2="254.5" y2="45.6"/>
	<path class="st20" d="M247.2,30.5c0,0-2.8,14.8-0.6,22.8c0.9,3.3,3.6,5.2,6.4,5.2c9.5,0,8.1-8.1,7.5-12.1"/>
</g>
<g>
	<line class="st20" x1="273.9" y1="35.6" x2="286.9" y2="35.6"/>
	<path class="st18" d="M274.5,31.6c0,0-2.6,8.4-5.2,10.7"/>
	<path class="st21" d="M286.9,35.6c0,4.2-1.8,10.6-5.5,15c-3.1,3.7-7.8,5.9-11,6.1"/>
</g>
<g>
	<line class="st20" x1="375.6" y1="35.8" x2="388.5" y2="35.8"/>
	<path class="st18" d="M376.1,31.7c0,0-2.6,8.4-5.2,10.7"/>
	<path class="st21" d="M388.5,35.8c0,4.2-1.8,10.6-5.5,15c-3.1,3.7-7.8,5.9-11,6.1"/>
</g>
<g>
	<line class="st20" x1="296.2" y1="32" x2="296.2" y2="42.7"/>
	<path class="st21" d="M310.6,32c0,0,1.1,12.4-0.9,18.2c-1.5,4.4-7.6,7.9-9.5,8.4"/>
</g>
<path class="st22" d="M354.5,59.5"/>
<g>
	<line class="st18" x1="323.1" y1="34.1" x2="337.5" y2="34.1"/>
	<line class="st21" x1="320.1" y1="55.8" x2="340.5" y2="55.8"/>
</g>
<g>
	<circle class="st9" cx="347.2" cy="40.3" r="3"/>
	<circle class="st9" cx="354.3" cy="40.3" r="3"/>
	<path class="st23" d="M362.9,39c-0.4,7.9-2.5,10.2-5.2,13c-2.7,2.7-6.4,3.5-8.4,3.8"/>
</g>
<image style="display:none;overflow:visible;enable-background:new    ;" width="4000" height="2250" xlink:href="E65E6F118ECCE0C7.jpg"  transform="matrix(0.428 0 0 0.428 -489 530)">
</image>
<g>
	<g>
		<g>
			<path class="st24" d="M44.1,58.1c0.6,2.5,1.1,5.9,1.2,8.5c0.1,2.8-1.8,5.4-3.2,7.8c0,0,0.3,1.2,0.8,1.5c0.7,0.4,2,0.4,3.1,0.1
				c2.4-2.9,2.7-4.3,4.2-7.6c1-2.2,1.6-4.7,2.1-6c0.4-1.1,0.9-3.2,1.1-4.3c0.3-1.5,0.5-3.2,0.7-5.8c0.4-4.9,0.4-8.8-0.2-13.7
				s-2.2-9.3-5.2-12.4L48,25.6c-1.1-0.9-3.5-1.8-4.8-2c-7.2-1.4-14.4,1.3-19.9,6.1c-1-1.8-3.3-2.2-5.4-2.2c-1.2,0-2.4,0.2-3.4,0.7
				c-2.2,1.2-3,3.9-3.3,6.4c-0.4,3.5-0.2,7.1,0.5,10.5c0.6,2.9,1.9,6,4.6,7.3c3.2,1.6,7.9-1,10.6-3.3c0.7,2.8,2.2,5,3.8,6.2
				c2.4,1.8,5,3.3,10.9,3.6"/>
			<g>
				<path class="st24" d="M41.5,58.8c0.8,3.4,1.8,7.1,0.4,10.4c-0.7,1.8-2.6,3.4-2.4,5.5c0.3,3.4,4.3,5.2,7.3,3.9
					c3.5-1.5,5.2-7.1,6.4-10.4c1.8-4.6,2.9-9.3,3.4-14.2c1-9.5,1.4-23.6-6.8-30.4c-8.4-7-21.2-1.9-28.5,4c1.3,0,2.5,0,3.8,0
					c-2.7-3.3-8.4-4-12.1-1.9c-4.9,2.8-5.1,10-4.7,14.9c0.4,4.8,1.5,10.9,6,13.7c4.9,2.9,10.5-0.3,14.4-3.4c-1.5-0.4-3-0.8-4.5-1.2
					c2.6,8.1,9.2,11.2,17.2,11.7c3.5,0.2,3.5-5.2,0-5.4c-5.5-0.3-10.2-2.1-12-7.8c-0.7-2.1-2.9-2.5-4.5-1.2
					c-2.6,2.1-6.1,4.1-9.1,1.4c-1.6-1.5-2-6-2.1-7.8c-0.2-2.2-0.5-5.3,0.4-7.3c1.1-2.9,4.7-4.9,7.2-1.9c1,1.2,2.8,0.8,3.8,0
					c5.7-4.7,17.6-9.5,23-1.7c4.7,6.8,4,17.5,3,25.3c-0.4,2.9-1.1,5.7-2,8.5c-1,3.1-3.5,6.7-3.9,9.9c-0.3,2.7,1.6-2.2,1.9-2.8
					c0.4-1.1,0.7-2.2,0.8-3.4c0.2-3.2-0.6-6.7-1.3-9.9C46,54,40.8,55.4,41.5,58.8L41.5,58.8z"/>
			</g>
		</g>
		<g>
			<path class="st24" d="M51.9,28.4c1.8-0.4,3.2-2.1,5.1-2.2c2.3-0.2,4.1,1.9,5,4c2.4,5.5,1.6,12.3-2.2,17c-0.8,1-1.9,2-3.1,1.9"/>
			<g>
				<path class="st24" d="M52.6,31c1-0.4,2.7-1.7,3.6-1.8c3.1-0.4,3.8,3.2,4.2,5.3c0.5,3.3-0.1,11.1-4.4,12c-3.4,0.7-2,5.9,1.4,5.2
					c7.5-1.5,9.5-12.7,8.2-18.9c-0.6-3.2-2.2-6.8-5.2-8.4c-3.6-2-6,0.3-9.2,1.5C48,26.9,49.4,32.2,52.6,31L52.6,31z"/>
			</g>
		</g>
	</g>
	<path class="st9" d="M59,15.2c-0.9-1.6-2.7-2.6-4.6-2.6c-2.3,0-4.5,1-5.8,2.8c-0.7-0.4-1.5-0.7-2.4-0.7c-0.9,0-1.8,0.3-2.5,0.7
		c-1.3-1.8-3.5-2.8-5.7-2.9c-1.9-0.1-3.7,0.9-4.6,2.5c-0.7,1.2-0.9,2.5-0.8,3.9c0.1,3.1,1.5,5.8,4.5,6.8c2.6,0.9,5.4-0.1,7-2.2
		c0.6,0.3,1.4,0.5,2.2,0.5c0.7,0,1.4-0.2,2-0.5c1.6,2,4.4,3.1,6.9,2.3c3.1-1,4.6-3.8,4.7-6.9C59.8,17.6,59.6,16.3,59,15.2z"/>
	<path class="st25" d="M32.7,45.5c0,0-0.4-2.9,2-3.4s3.1,1.7,3.1,1.7"/>
	<path class="st25" d="M49.2,42.1c0,0,0.6-2.9,3-2.6c2.4,0.3,2.5,2.6,2.5,2.6"/>
	<circle class="st26" cx="46.1" cy="19.3" r="5"/>
</g>
</svg>
